# File created by Blade
# Date/Time:  Wed Jan 21 17:41:14 2015
# Frame Rate: 120.000 fps
#------------------------------------------------------
:FULLY-SPECIFIED
:DEGREES
1888
root 15.735170 35.731284 -25.317552 -699.181657 89.027356 -698.561160
Spine -7.045766 0.151164 -0.124760
Head 6.054091 -2.337842 2.010248
LeftShoulder -9.234825 -31.007177 17.837064
LeftArm 8.280968 3.765773 -7.211928
LeftForeArm 10.180959 -0.000000 -2.885602
LeftHand -7.026395 -0.000000 7.321014
LeftHandThumb1 -26.253704 0.000000 33.147579
RightShoulder -11.143829 -4.046057 -9.577349
RightArm 13.573111 37.192367 8.911831
RightForeArm -36.267829 -0.000000 4.953721
RightHand -6.540684 -0.000000 -3.349966
RightHandThumb1 -24.326973 -0.000000 -32.862282
LeftUpLeg 2.675311 10.111257 -1.623842
LeftLeg -1.084631 -0.000000 0.000000
LeftFoot -17.409680 27.492891 -11.334928
LeftToeBase 23.644439 -0.000000 -0.000000
RightUpLeg -2.832712 -7.637830 -6.574116
RightLeg 12.604783 -0.000000 -0.000000
RightFoot -27.997196 -17.856352 20.390652
RightToeBase 9.886862 -0.000000 -0.000000
1889
root 15.754904 35.719339 -25.340798 -683.575853 89.150704 -682.979399
Spine -7.123267 0.110896 -0.450610
Head 6.244281 -2.600414 2.115643
LeftShoulder -9.114123 -31.055230 17.859302
LeftArm 8.447120 3.819847 -7.202205
LeftForeArm 10.221314 -0.000000 -2.834021
LeftHand -7.041316 -0.000000 7.504577
LeftHandThumb1 -26.253704 0.000000 33.147579
RightShoulder -11.249725 -4.024166 -9.542692
RightArm 13.596964 37.250138 9.054693
RightForeArm -36.331813 0.000000 4.937363
RightHand -6.729517 0.000000 -2.928813
RightHandThumb1 -24.326973 -0.000000 -32.862282
LeftUpLeg 2.605093 10.074161 -1.802462
LeftLeg -0.970286 -0.000000 0.000000
LeftFoot -17.464551 27.295463 -11.316442
LeftToeBase 23.689413 -0.000000 -0.000000
RightUpLeg -2.618817 -7.548418 -6.667607
RightLeg 12.060548 -0.000000 -0.000000
RightFoot -27.661638 -17.777160 19.985856
RightToeBase 9.606057 -0.000000 -0.000000
1890
root 15.776001 35.708220 -25.362579 -665.679139 89.149569 -665.127327
Spine -7.244428 0.045128 -0.794411
Head 6.427979 -2.790856 2.204757
LeftShoulder -9.072003 -31.173494 17.888598
LeftArm 8.625753 4.118017 -7.114585
LeftForeArm 10.243654 -0.000000 -2.809460
LeftHand -6.963967 -0.000000 7.556723
LeftHandThumb1 -26.253704 0.000000 33.147579
RightShoulder -11.312230 -4.076649 -9.459448
RightArm 13.677450 37.337105 9.182625
RightForeArm -36.181676 -0.000000 4.878984
RightHand -6.639225 -0.000000 -3.001059
RightHandThumb1 -24.326973 -0.000000 -32.862282
LeftUpLeg 2.559849 10.003256 -2.012145
LeftLeg -0.928114 -0.000000 0.000000
LeftFoot -17.500231 27.149170 -11.358132
LeftToeBase 23.693848 -0.000000 -0.000000
RightUpLeg -2.419863 -7.434690 -6.807379
RightLeg 11.518545 -0.000000 -0.000000
RightFoot -27.304360 -17.776431 19.526924
RightToeBase 9.285476 -0.000000 -0.000000
1891
root 15.795966 35.696471 -25.383078 -647.905637 89.084324 -647.423847
Spine -7.395456 -0.045011 -1.111991
Head 6.627419 -2.906133 2.242367
LeftShoulder -9.097089 -31.138087 17.953034
LeftArm 8.877129 4.083693 -7.143517
LeftForeArm 10.384332 -0.000000 -2.795639
LeftHand -6.878109 -0.000000 7.616775
LeftHandThumb1 -26.253704 0.000000 33.147579
RightShoulder -11.363315 -4.070165 -9.382839
RightArm 13.711444 37.307495 9.211042
RightForeArm -36.195678 -0.000000 4.803212
RightHand -6.578551 -0.000000 -3.023672
RightHandThumb1 -24.326973 -0.000000 -32.862282
LeftUpLeg 2.491217 9.903883 -2.219593
LeftLeg -0.899606 -0.000000 0.000000
LeftFoot -17.528797 27.018021 -11.374173
LeftToeBase 23.766625 -0.000000 -0.000000
RightUpLeg -2.230619 -7.402941 -6.959634
RightLeg 10.979138 -0.000000 -0.000000
RightFoot -26.846785 -17.862116 18.962334
RightToeBase 9.400551 -0.000000 -0.000000
1892
root 15.823955 35.685174 -25.398219 -636.885152 88.956469 -636.461596
Spine -7.562552 -0.014437 -1.416695
Head 6.845192 -3.136413 2.262375
LeftShoulder -9.034803 -31.128393 17.943965
LeftArm 9.118306 4.129553 -7.132600
LeftForeArm 10.583037 -0.000000 -2.773273
LeftHand -6.882358 -0.000000 7.628217
LeftHandThumb1 -26.253704 0.000000 33.147579
RightShoulder -11.465540 -4.075635 -9.322229
RightArm 13.677815 37.308701 9.257732
RightForeArm -36.253634 0.000000 4.865966
RightHand -6.609540 -0.000000 -2.925057
RightHandThumb1 -24.326973 -0.000000 -32.862282
LeftUpLeg 2.486218 9.872346 -2.393690
LeftLeg -0.930163 -0.000000 0.000000
LeftFoot -17.544116 26.862821 -11.417534
LeftToeBase 23.739292 -0.000000 -0.000000
RightUpLeg -2.009579 -7.370496 -7.108200
RightLeg 10.449889 -0.000000 -0.000000
RightFoot -26.227622 -18.136377 18.265045
RightToeBase 9.088442 -0.000000 -0.000000
1893
root 15.845695 35.674024 -25.411421 -629.138139 88.820519 -628.814294
Spine -7.759846 -0.017195 -1.669976
Head 7.042602 -3.259982 2.268042
LeftShoulder -9.032683 -31.165769 17.966957
LeftArm 9.318106 4.361950 -7.132297
LeftForeArm 10.614709 -0.000000 -2.733472
LeftHand -6.916641 -0.000000 7.798293
LeftHandThumb1 -26.253704 0.000000 33.147579
RightShoulder -11.537965 -4.123424 -9.241067
RightArm 13.709968 37.307245 9.275716
RightForeArm -36.210220 0.000000 4.825385
RightHand -6.652068 -0.000000 -3.244223
RightHandThumb1 -24.326973 -0.000000 -32.862282
LeftUpLeg 2.427549 9.854584 -2.551081
LeftLeg -0.949454 -0.000000 0.000000
LeftFoot -17.568291 26.707449 -11.422394
LeftToeBase 23.771219 -0.000000 -0.000000
RightUpLeg -1.871453 -7.274555 -7.243580
RightLeg 10.059221 -0.000000 -0.000000
RightFoot -25.333711 -18.615012 17.444874
RightToeBase 8.660306 -0.000000 -0.000000
1894
root 15.871739 35.664835 -25.422230 -624.012523 88.678364 -623.771046
Spine -7.937641 -0.007424 -1.898827
Head 7.204933 -3.349576 2.231169
LeftShoulder -9.097386 -31.170768 18.005846
LeftArm 9.563090 4.562061 -7.155888
LeftForeArm 10.695764 -0.000000 -2.684206
LeftHand -6.977537 -0.000000 7.892158
LeftHandThumb1 -26.253704 0.000000 33.147579
RightShoulder -11.624750 -4.204570 -9.175266
RightArm 13.751199 37.352608 9.340808
RightForeArm -36.182165 -0.000000 4.866878
RightHand -6.737448 -0.000000 -3.402551
RightHandThumb1 -24.326973 -0.000000 -32.862282
LeftUpLeg 2.420493 9.844968 -2.697069
LeftLeg -1.023751 -0.000000 0.000000
LeftFoot -17.570329 26.576644 -11.474941
LeftToeBase 23.813073 -0.000000 -0.000000
RightUpLeg -1.740570 -7.188705 -7.389147
RightLeg 9.769824 -0.000000 -0.000000
RightFoot -24.314739 -19.216193 16.644726
RightToeBase 8.450623 -0.000000 -0.000000
1895
root 15.902572 35.659515 -25.427457 -620.257358 88.609110 -620.071330
Spine -8.090052 0.033475 -2.004239
Head 7.361115 -3.485773 2.094718
LeftShoulder -9.149137 -31.132640 17.942791
LeftArm 9.805836 4.639080 -7.134857
LeftForeArm 10.805892 0.000000 -2.623380
LeftHand -6.972728 -0.000000 7.883440
LeftHandThumb1 -26.253704 0.000000 33.147579
RightShoulder -11.675987 -4.240393 -9.144843
RightArm 13.679171 37.414093 9.349059
RightForeArm -36.207044 -0.000000 4.958678
RightHand -6.723598 0.000000 -3.527983
RightHandThumb1 -24.326973 -0.000000 -32.862282
LeftUpLeg 2.484262 9.805359 -2.753871
LeftLeg -1.164674 -0.000000 0.000000
LeftFoot -17.551479 26.525803 -11.470669
LeftToeBase 23.855230 -0.000000 -0.000000
RightUpLeg -1.558438 -7.246285 -7.452121
RightLeg 9.398561 -0.000000 -0.000000
RightFoot -23.582457 -19.795253 16.399758
RightToeBase 8.984173 -0.000000 -0.000000
1896
root 15.937400 35.656634 -25.431638 -616.910937 88.565664 -616.755535
Spine -8.226199 0.075594 -2.037283
Head 7.531559 -3.593991 1.900273
LeftShoulder -9.199441 -31.081732 17.831518
LeftArm 10.045165 4.821057 -7.107568
LeftForeArm 10.846138 -0.000000 -2.598149
LeftHand -7.049613 -0.000000 8.039538
LeftHandThumb1 -26.253704 0.000000 33.147579
RightShoulder -11.717170 -4.307472 -9.153844
RightArm 13.632049 37.553788 9.395290
RightForeArm -36.186709 -0.000000 4.987459
RightHand -6.774413 0.000000 -3.739793
RightHandThumb1 -24.326973 -0.000000 -32.862282
LeftUpLeg 2.598138 9.746371 -2.777748
LeftLeg -1.341465 -0.000000 0.000000
LeftFoot -17.538429 26.483794 -11.521000
LeftToeBase 23.852601 -0.000000 -0.000000
RightUpLeg -1.323772 -7.458198 -7.498434
RightLeg 8.864539 -0.000000 -0.000000
RightFoot -23.397390 -20.455037 16.709480
RightToeBase 10.708391 -0.000000 -0.000000
1897
root 15.978882 35.653966 -25.431301 -613.835478 88.526223 -613.671440
Spine -8.318683 0.119180 -2.070964
Head 7.654483 -3.630758 1.768583
LeftShoulder -9.280341 -31.022833 17.790216
LeftArm 10.273544 4.999361 -7.144429
LeftForeArm 10.852180 -0.000000 -2.594553
LeftHand -7.047432 -0.000000 8.287593
LeftHandThumb1 -26.253704 0.000000 33.147579
RightShoulder -11.784522 -4.392341 -9.126655
RightArm 13.628409 37.529746 9.342022
RightForeArm -36.156142 0.000000 4.918361
RightHand -6.640019 -0.000000 -3.834847
RightHandThumb1 -24.326973 -0.000000 -32.862282
LeftUpLeg 2.786810 9.665727 -2.778926
LeftLeg -1.562454 -0.000000 0.000000
LeftFoot -17.499877 26.462343 -11.574766
LeftToeBase 23.829234 -0.000000 -0.000000
RightUpLeg -1.045142 -7.841815 -7.547139
RightLeg 8.358584 -0.000000 -0.000000
RightFoot -23.074765 -20.847950 16.685311
RightToeBase 12.973049 -0.000000 -0.000000
1898
root 16.021356 35.653079 -25.426892 -611.263739 88.526269 -611.081910
Spine -8.407642 0.153198 -2.042910
Head 7.804615 -3.641739 1.568074
LeftShoulder -9.392395 -30.904299 17.742568
LeftArm 10.502352 5.116293 -7.184834
LeftForeArm 11.005498 -0.000000 -2.612623
LeftHand -7.048629 -0.000000 8.263568
LeftHandThumb1 -26.253704 0.000000 33.147579
RightShoulder -11.758350 -4.414806 -9.136420
RightArm 13.488619 37.537349 9.279796
RightForeArm -36.208668 0.000000 4.950867
RightHand -6.672141 -0.000000 -4.034668
RightHandThumb1 -24.326973 -0.000000 -32.862282
LeftUpLeg 2.991655 9.592502 -2.741622
LeftLeg -1.795669 -0.000000 0.000000
LeftFoot -17.464521 26.479844 -11.595405
LeftToeBase 23.841172 -0.000000 -0.000000
RightUpLeg -0.722161 -8.173645 -7.563481
RightLeg 7.770530 -0.000000 -0.000000
RightFoot -22.506883 -21.020543 16.728432
RightToeBase 14.931400 -0.000000 -0.000000
1899
root 16.066070 35.652204 -25.418961 -608.343781 88.533846 -608.148631
Spine -8.514941 0.198375 -1.997347
Head 7.965445 -3.661106 1.362040
LeftShoulder -9.406941 -30.845302 17.659003
LeftArm 10.613441 5.343957 -7.168675
LeftForeArm 11.076799 0.000000 -2.582431
LeftHand -6.936196 -0.000000 8.147356
LeftHandThumb1 -26.253704 0.000000 33.147579
RightShoulder -11.736973 -4.452158 -9.183086
RightArm 13.329121 37.560116 9.260008
RightForeArm -36.181503 -0.000000 4.977899
RightHand -6.761302 -0.000000 -4.194517
RightHandThumb1 -24.326973 -0.000000 -32.862282
LeftUpLeg 3.198312 9.462961 -2.691741
LeftLeg -2.035225 -0.000000 0.000000
LeftFoot -17.439699 26.554267 -11.612355
LeftToeBase 23.872037 -0.000000 -0.000000
RightUpLeg -0.376067 -8.481271 -7.577699
RightLeg 7.150100 -0.000000 -0.000000
RightFoot -21.907445 -21.105279 16.704892
RightToeBase 17.262008 -0.000000 -0.000000
1900
root 16.108941 35.651427 -25.407056 -605.816329 88.550448 -605.651029
Spine -8.677228 0.238236 -1.941534
Head 8.125608 -3.657172 1.153464
LeftShoulder -9.468168 -30.706034 17.618734
LeftArm 10.747279 5.501345 -7.216460
LeftForeArm 11.194300 -0.000000 -2.578264
LeftHand -6.819145 -0.000000 8.239941
LeftHandThumb1 -26.253704 0.000000 33.147579
RightShoulder -11.745004 -4.550563 -9.206019
RightArm 13.283659 37.625266 9.276292
RightForeArm -36.160420 -0.000000 4.964675
RightHand -6.841269 -0.000000 -4.300011
RightHandThumb1 -24.326973 -0.000000 -32.862282
LeftUpLeg 3.361641 9.326008 -2.637662
LeftLeg -2.282956 -0.000000 0.000000
LeftFoot -17.400556 26.647205 -11.600549
LeftToeBase 23.920325 -0.000000 -0.000000
RightUpLeg -0.081532 -8.801642 -7.578028
RightLeg 6.545377 -0.000000 -0.000000
RightFoot -21.237346 -21.016833 16.531324
RightToeBase 19.398122 -0.000000 -0.000000
